<svg xmlns="http://www.w3.org/2000/svg" width="232.62" height="256.25" viewBox="0 0 232.62 256.25">
  <defs>
    <style>
      .cls-1, .cls-11 {
        fill: #e47272;
      }

      .cls-2 {
        fill: #c25b5b;
      }

      .cls-3 {
        fill: #ffedc5;
      }

      .cls-4 {
        fill: #3c3b44;
      }

      .cls-5 {
        fill: #fff;
        stroke-width: 1px;
      }

      .cls-5, .cls-7 {
        stroke: #41424d;
      }

      .cls-6 {
        fill: #41424d;
      }

      .cls-10, .cls-11, .cls-12, .cls-13, .cls-14, .cls-6, .cls-7, .cls-8, .cls-9 {
        fill-rule: evenodd;
      }

      .cls-7 {
        fill: none;
        stroke-width: 3px;
      }

      .cls-8 {
        fill: #fedcaa;
      }

      .cls-9 {
        fill: #1d1d1d;
      }

      .cls-10 {
        fill: #d1cacf;
      }

      .cls-12 {
        fill: #f8931f;
      }

      .cls-13 {
        fill: #e27302;
      }

      .cls-14 {
        fill: #ec8b21;
      }
    </style>
  </defs>
  <g>
    <circle class="cls-1" cx="114.5" cy="141.75" r="114.5"/>
    <rect id="Rectangle_2_copy_23" data-name="Rectangle 2 copy 23" class="cls-2" x="60" y="58.25" width="120" height="170" rx="10" ry="10"/>
    <rect id="Rectangle_2_copy_17" data-name="Rectangle 2 copy 17" class="cls-3" x="54" y="53.25" width="120" height="170" rx="10" ry="10"/>
    <rect id="Rectangle_2_copy_18" data-name="Rectangle 2 copy 18" class="cls-4" x="68" y="78.25" width="36" height="4" rx="2" ry="2"/>
    <rect id="Rectangle_2_copy_19" data-name="Rectangle 2 copy 19" class="cls-4" x="68" y="84.25" width="83" height="4" rx="2" ry="2"/>
    <rect id="Rectangle_2_copy_20" data-name="Rectangle 2 copy 20" class="cls-4" x="68" y="84.25" width="36" height="4" rx="2" ry="2"/>
    <rect id="Rectangle_2_copy_20-2" data-name="Rectangle 2 copy 20" class="cls-4" x="68" y="90.25" width="83" height="4" rx="2" ry="2"/>
    <rect id="Rectangle_2_copy_21" data-name="Rectangle 2 copy 21" class="cls-4" x="68" y="90.25" width="36" height="4" rx="2" ry="2"/>
    <rect id="Rectangle_2_copy_21-2" data-name="Rectangle 2 copy 21" class="cls-4" x="68" y="96.25" width="83" height="4" rx="2" ry="2"/>
    <rect id="Rectangle_2_copy_22" data-name="Rectangle 2 copy 22" class="cls-4" x="68" y="96.25" width="83" height="4" rx="2" ry="2"/>
    <rect id="Rectangle_2_copy_22-2" data-name="Rectangle 2 copy 22" class="cls-4" x="68" y="102.25" width="83" height="4" rx="2" ry="2"/>
    <rect id="Rectangle_2_copy_22-3" data-name="Rectangle 2 copy 22" class="cls-4" x="68" y="102.25" width="36" height="4" rx="2" ry="2"/>
    <rect id="Rectangle_2_copy_22-4" data-name="Rectangle 2 copy 22" class="cls-4" x="68" y="108.25" width="83" height="4" rx="2" ry="2"/>
    <ellipse id="Ellipse_1_copy_5" data-name="Ellipse 1 copy 5" class="cls-5" cx="147.5" cy="192.75" rx="10.5" ry="8.5"/>
    <ellipse id="Ellipse_1_copy_6" data-name="Ellipse 1 copy 6" class="cls-5" cx="115.5" cy="192.75" rx="10.5" ry="8.5"/>
    <path id="Rectangle_1_copy_16" data-name="Rectangle 1 copy 16" class="cls-6" d="M988,635.994a2,2,0,0,1,2,2V643A2,2,0,1,1,986,643V638A2,2,0,0,1,988,635.994Z" transform="translate(-866 -454.75)"/>
    <path id="Rectangle_1_copy_17" data-name="Rectangle 1 copy 17" class="cls-6" d="M1010,635.994a2,2,0,0,1,2,2V643a2,2,0,1,1-4,0V638A2,2,0,0,1,1010,635.994Z" transform="translate(-866 -454.75)"/>
    <path id="Shape_1_copy_2" data-name="Shape 1 copy 2" class="cls-7" d="M995.3,648.636s3.426,4.577,7.339,0" transform="translate(-866 -454.75)"/>
    <path class="cls-8" d="M1035,568l-27,15,3-30,23-3Z" transform="translate(-866 -454.75)"/>
    <path class="cls-9" d="M1017,578l-8-4-1,9Z" transform="translate(-866 -454.75)"/>
    <path class="cls-10" d="M1069,467l4-6,22,15-4,6Z" transform="translate(-866 -454.75)"/>
    <path class="cls-11" d="M1073,461l4-5s1.4-2.812,6,0,13,9,13,9,4.12,1.555,2,6l-3,6Z" transform="translate(-866 -454.75)"/>
    <path class="cls-12" d="M1011,554l58-87,22,15-57,86s-5.46.011-4-5c1.73-5.931-5-2-5-2s-5.17.843-4-3c1.65-5.411-3.93-3.928-5-2S1010.42,555.567,1011,554Z" transform="translate(-866 -454.75)"/>
    <path class="cls-13" d="M1091,482l-57,86-9-2,59-88Z" transform="translate(-866 -454.75)"/>
    <path class="cls-14" d="M1069,467l7,5-56,82-5,3-4-3Z" transform="translate(-866 -454.75)"/>
  </g>
</svg>
