<svg xmlns="http://www.w3.org/2000/svg" width="229" height="229" viewBox="0 0 229 229">
  <defs>
    <style>
      .cls-1 {
        fill: #949df8;
      }

      .cls-2, .cls-7, .cls-8 {
        fill: #fff;
      }

      .cls-2, .cls-4 {
        stroke: #41424d;
      }

      .cls-2 {
        stroke-width: 1px;
      }

      .cls-3 {
        fill: #41424d;
      }

      .cls-3, .cls-4, .cls-5, .cls-6, .cls-8 {
        fill-rule: evenodd;
      }

      .cls-4 {
        fill: none;
        stroke-width: 3px;
      }

      .cls-5 {
        fill: #b3b9f8;
      }

      .cls-6 {
        fill: #4c55b1;
      }
    </style>
  </defs>
  <g>
    <circle id="Ellipse_1_copy_7" data-name="Ellipse 1 copy 7" class="cls-1" cx="114.5" cy="114.5" r="114.5"/>
    <ellipse id="Ellipse_1_copy_8" data-name="Ellipse 1 copy 8" class="cls-2" cx="150.5" cy="39.5" rx="10.5" ry="8.5"/>
    <ellipse id="Ellipse_1_copy_9" data-name="Ellipse 1 copy 9" class="cls-2" cx="117.5" cy="40.5" rx="10.5" ry="8.5"/>
    <path id="Rectangle_1_copy_19" data-name="Rectangle 1 copy 19" class="cls-3" d="M1234,514.994a2,2,0,0,1,2,2V522a2,2,0,1,1-4,0V517A2,2,0,0,1,1234,514.994Z" transform="translate(-1111 -488)"/>
    <path id="Rectangle_1_copy_18" data-name="Rectangle 1 copy 18" class="cls-3" d="M1257,514.994a2,2,0,0,1,2,2V522a2,2,0,1,1-4,0V517A2,2,0,0,1,1257,514.994Z" transform="translate(-1111 -488)"/>
    <path id="Shape_1_copy_3" data-name="Shape 1 copy 3" class="cls-4" d="M1241.3,531.635s3.43,4.578,7.34,0" transform="translate(-1111 -488)"/>
    <rect class="cls-1" x="90" y="93" width="84" height="83" rx="10" ry="10"/>
    <path id="Rectangle_7_copy_2" data-name="Rectangle 7 copy 2" class="cls-5" d="M1254.64,558.338l61.01,0.584c5.12,0.049,7.17,1.237,4.61,2.659l-30.14,16.689c-2.72,1.5-9.28,2.73-14.67,2.73h-64.29c-5.71,0-7.91-1.269-4.89-2.828l33.4-17.271C1242.52,559.431,1249.22,558.286,1254.64,558.338Z" transform="translate(-1111 -488)"/>
    <path id="Rectangle_7_copy" data-name="Rectangle 7 copy" class="cls-6" d="M1288.89,578.362l30.03-16.214c2.5-1.347,4.51,1.844,4.51,7.119v60.181c0,5.275-2.01,10.828-4.51,12.41L1288.89,660.9c-2.7,1.707-4.89-1.379-4.89-6.9V591C1284,585.477,1286.19,579.815,1288.89,578.362Z" transform="translate(-1111 -488)"/>
    <circle class="cls-7" cx="114.5" cy="116.5" r="7.5"/>
    <circle id="Ellipse_2_copy" data-name="Ellipse 2 copy" class="cls-7" cx="150.5" cy="116.5" r="7.5"/>
    <path id="Ellipse_2_copy_6" data-name="Ellipse 2 copy 6" class="cls-8" d="M1303.18,606.355c2.7-1.083,4.65.658,4.65,3.766a12.013,12.013,0,0,1-4.65,8.923c-3.11,2.208-6.01,1-6.01-3.012S1300.07,607.6,1303.18,606.355Z" transform="translate(-1111 -488)"/>
    <path id="Ellipse_2_copy_7" data-name="Ellipse 2 copy 7" class="cls-8" d="M1293.18,590.355c2.7-1.083,4.65.658,4.65,3.766a12.013,12.013,0,0,1-4.65,8.923c-3.11,2.208-6.01,1-6.01-3.012S1290.07,591.6,1293.18,590.355Z" transform="translate(-1111 -488)"/>
    <path id="Ellipse_2_copy_8" data-name="Ellipse 2 copy 8" class="cls-8" d="M1315.18,622.355c2.7-1.083,4.65.658,4.65,3.766a12.013,12.013,0,0,1-4.65,8.923c-3.11,2.208-6.01,1-6.01-3.012S1312.07,623.6,1315.18,622.355Z" transform="translate(-1111 -488)"/>
    <path id="Ellipse_2_copy_4" data-name="Ellipse 2 copy 4" class="cls-8" d="M1268.61,565.76c2.99,0,5.09.815,4.53,2.226-0.66,1.644-6.92,5.254-14.88,5.254-6.97,0-5.41-3.112-.34-5.254A30.573,30.573,0,0,1,1268.61,565.76Z" transform="translate(-1111 -488)"/>
    <circle id="Ellipse_2_copy_2" data-name="Ellipse 2 copy 2" class="cls-7" cx="114.5" cy="152.5" r="7.5"/>
    <circle id="Ellipse_2_copy_3" data-name="Ellipse 2 copy 3" class="cls-7" cx="150.5" cy="152.5" r="7.5"/>
    <rect class="cls-1" x="27" y="84" width="84" height="83" rx="10" ry="10"/>
    <path id="Rectangle_7_copy_2-2" data-name="Rectangle 7 copy 2" class="cls-5" d="M1192.29,549.806l59.04,1.106c4.83,0.09,6.84,1.2,4.53,2.5l-28.32,15.872c-2.66,1.491-9.2,2.713-14.62,2.713h-66.76c-6.12,0-8.34-1.314-4.94-2.917l36-16.971C1180.15,550.731,1186.91,549.705,1192.29,549.806Z" transform="translate(-1111 -488)"/>
    <path id="Rectangle_7_copy-2" data-name="Rectangle 7 copy" class="cls-6" d="M1225.89,569.362l30.03-16.214c2.5-1.347,4.51,1.844,4.51,7.119v60.181c0,5.275-2.01,10.828-4.51,12.41L1225.89,651.9c-2.7,1.707-4.89-1.379-4.89-6.9V582C1221,576.477,1223.19,570.815,1225.89,569.362Z" transform="translate(-1111 -488)"/>
    <circle class="cls-7" cx="51.5" cy="107.5" r="7.5"/>
    <circle id="Ellipse_2_copy-2" data-name="Ellipse 2 copy" class="cls-7" cx="87.5" cy="107.5" r="7.5"/>
    <path id="Ellipse_2_copy_6-2" data-name="Ellipse 2 copy 6" class="cls-8" d="M1240.18,597.355c2.7-1.083,4.65.658,4.65,3.766a12.013,12.013,0,0,1-4.65,8.923c-3.11,2.208-6.01,1-6.01-3.012S1237.07,598.6,1240.18,597.355Z" transform="translate(-1111 -488)"/>
    <path id="Ellipse_2_copy_7-2" data-name="Ellipse 2 copy 7" class="cls-8" d="M1230.18,581.355c2.7-1.083,4.65.658,4.65,3.766a12.013,12.013,0,0,1-4.65,8.923c-3.11,2.208-6.01,1-6.01-3.012S1227.07,582.6,1230.18,581.355Z" transform="translate(-1111 -488)"/>
    <path id="Ellipse_2_copy_8-2" data-name="Ellipse 2 copy 8" class="cls-8" d="M1252.18,613.355c2.7-1.083,4.65.658,4.65,3.766a12.013,12.013,0,0,1-4.65,8.923c-3.11,2.208-6.01,1-6.01-3.012S1249.07,614.6,1252.18,613.355Z" transform="translate(-1111 -488)"/>
    <path id="Ellipse_2_copy_4-2" data-name="Ellipse 2 copy 4" class="cls-8" d="M1205.61,556.76c2.99,0,5.09.815,4.53,2.226-0.66,1.644-6.92,5.254-14.88,5.254-6.97,0-5.41-3.112-.34-5.254A30.573,30.573,0,0,1,1205.61,556.76Z" transform="translate(-1111 -488)"/>
    <circle id="Ellipse_2_copy_2-2" data-name="Ellipse 2 copy 2" class="cls-7" cx="51.5" cy="143.5" r="7.5"/>
    <circle id="Ellipse_2_copy_3-2" data-name="Ellipse 2 copy 3" class="cls-7" cx="87.5" cy="143.5" r="7.5"/>
  </g>
</svg>
