<?xml version="1.0" encoding="UTF-8" standalone="no" ?>
<!DOCTYPE svg PUBLIC "-//W3C//DTD SVG 1.1//EN" "http://www.w3.org/Graphics/SVG/1.1/DTD/svg11.dtd">
<svg xmlns="http://www.w3.org/2000/svg" xmlns:xlink="http://www.w3.org/1999/xlink" version="1.1" width="200" height="150" viewBox="0 0 200 150" xml:space="preserve">
<desc>Created with Fabric.js 4.6.0</desc>
<defs>
</defs>
<g transform="matrix(0.14 0 0 0.14 89.76 63.53)" id="uPuEXBbFUJuXhM6onBHYB"  >
<path style="stroke: rgb(0,8,14); stroke-width: 1; stroke-dasharray: none; stroke-linecap: round; stroke-dashoffset: 0; stroke-linejoin: round; stroke-miterlimit: 4; fill: none; fill-rule: nonzero; opacity: 1;" vector-effect="non-scaling-stroke"  transform=" translate(1312.87, 63.12)" d="M -1416.8 -142.13 L -1244.7 -22.789999999999992 C -1244.7 -22.789999999999992 -1214.939 -1.5509999999999913 -1208.9460000000001 15.882000000000005" stroke-linecap="round" />
</g>
<g transform="matrix(0.14 0 0 0.14 71.96 85.84)" id="99E1904HdM_f9leFgx2rz"  >
<path style="stroke: rgb(0,8,14); stroke-width: 1; stroke-dasharray: none; stroke-linecap: round; stroke-dashoffset: 0; stroke-linejoin: round; stroke-miterlimit: 4; fill: none; fill-rule: nonzero; opacity: 1;" vector-effect="non-scaling-stroke"  transform=" translate(1436.56, -91.52)" d="M -1210.6 466.64 C -1230.774 471.0988 -1284.5169999999998 457.5034 -1294.886 451.899 L -1593.496 251.299 C -1657.335 204.205 -1671.21 145.139 -1657.9660000000001 75.529 L -1612.6740000000002 -127.061 C -1587.9200000000003 -244.82100000000003 -1575.4680000000003 -260.491 -1535.7830000000001 -284.491" stroke-linecap="round" />
</g>
<g transform="matrix(0.14 0 0 0.14 100.2 86.93)" id="m6O-s4nNGwl7kQRrVUq2I"  >
<path style="stroke: rgb(0,8,14); stroke-width: 1; stroke-dasharray: none; stroke-linecap: round; stroke-dashoffset: 0; stroke-linejoin: round; stroke-miterlimit: 4; fill: none; fill-rule: nonzero; opacity: 1;" vector-effect="non-scaling-stroke"  transform=" translate(1240.29, -99.09)" d="M -1269.1 13.44 L -1235.4679999999998 38.486 C -1213.282 55.215999999999994 -1208.4599999999998 76.19800000000001 -1213.0639999999999 100.92699999999999 L -1231.398 184.745" stroke-linecap="round" />
</g>
<g transform="matrix(0.14 0 0 0.14 101.71 92.25)" id="qgjvoVSgrw6hwLV85p_mu"  >
<path style="stroke: rgb(0,8,14); stroke-width: 1; stroke-dasharray: none; stroke-linecap: round; stroke-dashoffset: 0; stroke-linejoin: round; stroke-miterlimit: 4; fill: none; fill-rule: nonzero; opacity: 1;" vector-effect="non-scaling-stroke"  transform=" translate(1229.81, -135.97)" d="M -1244.1 50.046 C -1217.665 69.70400000000001 -1211.9199999999998 94.35900000000001 -1217.404 123.416 L -1239.247 221.904" stroke-linecap="round" />
</g>
<g transform="matrix(0.14 0 0 0.14 93.37 56.52)" id="onATx5F0rRSSxvP896-Ok"  >
<path style="stroke: rgb(0,8,14); stroke-width: 1; stroke-dasharray: none; stroke-linecap: round; stroke-dashoffset: 0; stroke-linejoin: round; stroke-miterlimit: 4; fill: none; fill-rule: nonzero; opacity: 1;" vector-effect="non-scaling-stroke"  transform=" translate(1287.79, 111.75)" d="M -1475.8 -203.11 L -1237.62 -37.93000000000001 C -1221.0339999999999 -24.968000000000007 -1132 -9.065000000000008 -1099.78 -32.0763" stroke-linecap="round" />
</g>
<g transform="matrix(0.14 0 0 0.14 127.95 67.79)" id="QiT3ilxEoTjz34eWSR2zE"  >
<path style="stroke: rgb(0,8,14); stroke-width: 1; stroke-dasharray: none; stroke-linecap: round; stroke-dashoffset: 0; stroke-linejoin: round; stroke-miterlimit: 4; fill: none; fill-rule: nonzero; opacity: 1;" vector-effect="non-scaling-stroke"  transform=" translate(1047.43, 33.56)" d="M -935.41 -107.7 L -1115.2 -7.25 C -1131.739 3.6660000000000004 -1149.875 18.417 -1159.441 40.574" stroke-linecap="round" />
</g>
<g transform="matrix(0.14 0 0 0.14 108.11 38)" id="stvyg_-dzRSjJgBzqZ4hm"  >
<path style="stroke: rgb(0,8,14); stroke-width: 1; stroke-dasharray: none; stroke-linecap: round; stroke-dashoffset: 0; stroke-linejoin: round; stroke-miterlimit: 4; fill: none; fill-rule: nonzero; opacity: 1;" vector-effect="non-scaling-stroke"  transform=" translate(1185.35, 240.16)" d="M -1070.4 -48.89 L -869.4800000000001 -157.94 C -855.0350000000001 -165.7803 -841.3720000000002 -198.917 -855.5260000000002 -206.917 L -1149.8960000000002 -412.40700000000004 C -1177.5360000000003 -433.42900000000003 -1235.8070000000002 -438.19100000000003 -1268.5260000000003 -420.79870000000005 L -1521.1260000000002 -294.1487000000001" stroke-linecap="round" />
</g>
<g transform="matrix(0.14 0 0 0.14 133.58 92.07)" id="-FKCm7WoK8xH_t3QH0moj"  >
<path style="stroke: rgb(0,8,14); stroke-width: 1; stroke-dasharray: none; stroke-linecap: round; stroke-dashoffset: 0; stroke-linejoin: round; stroke-miterlimit: 4; fill: none; fill-rule: nonzero; opacity: 1;" vector-effect="non-scaling-stroke"  transform=" translate(1008.33, -134.74)" d="M -836.63 -190.45 C -824.963 -180.5582 -820.421 -132.01999999999998 -825.344 -116.66299999999998 L -905.2370000000001 233.977 C -910.1974000000001 255.648 -943.2860000000001 307.587 -968.4770000000001 322.939 L -1193.277 459.92900000000003" stroke-linecap="round" />
</g>
<g transform="matrix(0.14 0 0 0.14 152.25 61.62)" id="v11tvCyoRqA4AhIDHVho5"  >
<path style="stroke: rgb(0,8,14); stroke-width: 1; stroke-dasharray: none; stroke-linecap: round; stroke-dashoffset: 0; stroke-linejoin: round; stroke-miterlimit: 4; fill: none; fill-rule: nonzero; opacity: 1;" vector-effect="non-scaling-stroke"  transform=" translate(878.54, 76.38)" d="M -915.41 -117.32 L -868.4839999999999 -143.123 C -850.52 -151.5178 -835.4129999999999 -140.45159999999998 -844.3029999999999 -105.44899999999998 L -866.1459999999998 -6.960999999999984" stroke-linecap="round" />
</g>
<g transform="matrix(0.14 0 0 0.14 149.67 59.57)" id="Bs8NDSaxBUrXez781Xi00"  >
<path style="stroke: rgb(0,8,14); stroke-width: 1; stroke-dasharray: none; stroke-linecap: round; stroke-dashoffset: 0; stroke-linejoin: round; stroke-miterlimit: 4; fill: none; fill-rule: nonzero; opacity: 1;" vector-effect="non-scaling-stroke"  transform=" translate(896.49, 90.61)" d="M -950.45 -84.241 L -858.815 -132.43 C -847.9040000000001 -137.6907 -838.7280000000001 -130.7567 -844.128 -108.82300000000001 L -857.397 -47.108000000000004" stroke-linecap="round" />
</g>
<g transform="matrix(0.14 0 0 0.14 153.28 60.02)" id="lefZRGZuDjZxZqfwE_2sn"  >
<path style="stroke: rgb(0,8,14); stroke-width: 1; stroke-dasharray: none; stroke-linecap: round; stroke-dashoffset: 0; stroke-linejoin: round; stroke-miterlimit: 4; fill: none; fill-rule: nonzero; opacity: 1;" vector-effect="non-scaling-stroke"  transform=" translate(871.42, 87.45)" d="M -897.96 -92.604 L -855.3670000000001 -115.557 C -848.3383000000001 -119.0924 -842.4280000000001 -114.4331 -845.9072000000001 -99.694 L -854.4563 -58.222" stroke-linecap="round" />
</g>
<g transform="matrix(0.14 0 0 0.14 154.77 61.02)" id="sRfzMJuEAurYkkGQP7cuy"  >
<path style="stroke: rgb(0,8,14); stroke-width: 1; stroke-dasharray: none; stroke-linecap: round; stroke-dashoffset: 0; stroke-linejoin: round; stroke-miterlimit: 4; fill: none; fill-rule: nonzero; opacity: 1;" vector-effect="non-scaling-stroke"  transform=" translate(861.02, 80.55)" d="M -874.17 -85.531 L -853.5649999999999 -97.31500000000001 C -849.7458999999999 -99.42410000000001 -846.5347999999999 -96.64529000000002 -848.4259999999999 -87.85360000000001 L -853.0731999999999 -63.11660000000002" stroke-linecap="round" />
</g>
<g transform="matrix(0.14 0 0 0.14 155.44 62.81)" id="8gEAICjXDU6-8cxF-Q1iV"  >
<path style="stroke: rgb(0,8,14); stroke-width: 1; stroke-dasharray: none; stroke-linecap: round; stroke-dashoffset: 0; stroke-linejoin: round; stroke-miterlimit: 4; fill: none; fill-rule: nonzero; opacity: 1;" vector-effect="non-scaling-stroke"  transform=" translate(856.37, 68.12)" d="M -860.59 -73.707 L -855.2117000000001 -77.22739999999999 C -853.1528000000001 -78.37279999999998 -851.4218000000001 -76.86373999999999 -852.4413000000001 -72.08939999999998 L -854.9466000000001 -58.655399999999986" stroke-linecap="round" />
</g>
<g transform="matrix(0.14 0 0 0.14 114.41 24.3)" id="zxUQQ9blqPtuy-M3CHNsJ"  >
<path style="stroke: rgb(0,8,14); stroke-width: 1; stroke-dasharray: none; stroke-linecap: round; stroke-dashoffset: 0; stroke-linejoin: round; stroke-miterlimit: 4; fill: none; fill-rule: nonzero; opacity: 1;" vector-effect="non-scaling-stroke"  transform=" translate(1141.57, 335.08)" d="M -1341.3 -369.67 L -1261.317 -410.495 C -1237.459 -422.673 -1192.949 -423.589 -1156.927 -402.8934 L -941.8369999999999 -251.0134" stroke-linecap="round" />
</g>
<g transform="matrix(0.14 0 0 0.14 109.05 18.87)" id="0yM60Zg4hWB8kNaAHfXgn"  >
<path style="stroke: rgb(0,8,14); stroke-width: 1; stroke-dasharray: none; stroke-linecap: round; stroke-dashoffset: 0; stroke-linejoin: round; stroke-miterlimit: 4; fill: none; fill-rule: nonzero; opacity: 1;" vector-effect="non-scaling-stroke"  transform=" translate(1178.78, 372.72)" d="M -1299.7 -372.01 L -1230.967 -407.077 C -1218.9630000000002 -413.2014 -1184.949 -417.108 -1166.718 -406.93241 L -1057.8680000000002 -332.25241" stroke-linecap="round" />
</g>
<g transform="matrix(0.14 0 0 0.14 111.11 18.21)" id="6m6V9MvI7y5ls8WeiHCJS"  >
<path style="stroke: rgb(0,8,14); stroke-width: 1; stroke-dasharray: none; stroke-linecap: round; stroke-dashoffset: 0; stroke-linejoin: round; stroke-miterlimit: 4; fill: none; fill-rule: nonzero; opacity: 1;" vector-effect="non-scaling-stroke"  transform=" translate(1164.52, 377.34)" d="M -1248.3 -379.08 L -1202.493 -401.791 C -1194.0716 -405.9663 -1169.827 -407.3823 -1157.048 -400.4289 L -1080.748 -349.3989" stroke-linecap="round" />
</g>
<g transform="matrix(0.14 0 0 0.14 111.88 17.14)" id="wUMBo_vcW4SVW7QYfA5fq"  >
<path style="stroke: rgb(0,8,14); stroke-width: 1; stroke-dasharray: none; stroke-linecap: round; stroke-dashoffset: 0; stroke-linejoin: round; stroke-miterlimit: 4; fill: none; fill-rule: nonzero; opacity: 1;" vector-effect="non-scaling-stroke"  transform=" translate(1159.16, 384.75)" d="M -1204.4 -381.66 L -1177.269 -395.57300000000004 C -1173.2378 -397.6403 -1157.5720000000001 -398.12620000000004 -1151.309 -395.02505 L -1113.915 -372.26705000000004" stroke-linecap="round" />
</g>
<g transform="matrix(0.14 0 0 0.14 112.86 16.93)" id="hTAYsomYXktyVKHmMoCQ7"  >
<path style="stroke: rgb(0,8,14); stroke-width: 1; stroke-dasharray: none; stroke-linecap: round; stroke-dashoffset: 0; stroke-linejoin: round; stroke-miterlimit: 4; fill: none; fill-rule: nonzero; opacity: 1;" vector-effect="non-scaling-stroke"  transform=" translate(1152.36, 386.21)" d="M -1165.5 -382.83 L -1154.096 -388.41319999999996 C -1150.6944 -390.07859999999994 -1144.3481 -390.20369999999997 -1139.211 -387.37289999999996" stroke-linecap="round" />
</g>
<g transform="matrix(0.14 0 0 0.14 115.54 115.84)" id="AS7jSVFcneQN1_qv6RaQ_"  >
<path style="stroke: rgb(0,8,14); stroke-width: 1; stroke-dasharray: none; stroke-linecap: round; stroke-dashoffset: 0; stroke-linejoin: round; stroke-miterlimit: 4; fill: none; fill-rule: nonzero; opacity: 1;" vector-effect="non-scaling-stroke"  transform=" translate(1133.7, -299.54)" d="M -1035.2 348.2 L -1185.03 438.435 C -1206.027 447.8948 -1236.8999999999999 413.708 -1231.596 390.911 L -1179.171 159.02100000000002" stroke-linecap="round" />
</g>
<g transform="matrix(0.14 0 0 0.14 112.13 126.61)" id="wLPlNNbgq-H-QtKKWFKxM"  >
<path style="stroke: rgb(0,8,14); stroke-width: 1; stroke-dasharray: none; stroke-linecap: round; stroke-dashoffset: 0; stroke-linejoin: round; stroke-miterlimit: 4; fill: none; fill-rule: nonzero; opacity: 1;" vector-effect="non-scaling-stroke"  transform=" translate(1157.42, -374.23)" d="M -1083.2 358.8 L -1196.1000000000001 426.43600000000004 C -1211.921 433.52670000000006 -1235.1840000000002 407.901 -1231.1870000000001 390.814 L -1215.4810000000002 320.805" stroke-linecap="round" />
</g>
<g transform="matrix(0.14 0 0 0.14 108.62 127.28)" id="K1nCylaP079xJwWPdzvlS"  >
<path style="stroke: rgb(0,8,14); stroke-width: 1; stroke-dasharray: none; stroke-linecap: round; stroke-dashoffset: 0; stroke-linejoin: round; stroke-miterlimit: 4; fill: none; fill-rule: nonzero; opacity: 1;" vector-effect="non-scaling-stroke"  transform=" translate(1181.79, -378.88)" d="M -1132.3 368.7 L -1207.576 413.317 C -1218.125 417.9944 -1233.637 401.09000000000003 -1230.972 389.817 L -1220.5 343.634" stroke-linecap="round" />
</g>
<g transform="matrix(0.14 0 0 0.14 104.66 128.51)" id="30K62yOf04WpIQ0kLWffx"  >
<path style="stroke: rgb(0,8,14); stroke-width: 1; stroke-dasharray: none; stroke-linecap: round; stroke-dashoffset: 0; stroke-linejoin: round; stroke-miterlimit: 4; fill: none; fill-rule: nonzero; opacity: 1;" vector-effect="non-scaling-stroke"  transform=" translate(1209.3, -387.37)" d="M -1186.7 382.9 L -1221.084 402.496 C -1225.9025000000001 404.55019999999996 -1232.988 397.12489999999997 -1231.771 392.174 L -1226.9883 371.88899999999995" stroke-linecap="round" />
</g>
<g transform="matrix(0.14 0 0 0.14 102.84 127.78)" id="unr816KSFzIir43H2gDcU"  >
<path style="stroke: rgb(0,8,14); stroke-width: 1; stroke-dasharray: none; stroke-linecap: round; stroke-dashoffset: 0; stroke-linejoin: round; stroke-miterlimit: 4; fill: none; fill-rule: nonzero; opacity: 1;" vector-effect="non-scaling-stroke"  transform=" translate(1221.95, -382.34)" d="M -1213.9 380.96 L -1226.14 387.00649999999996 C -1227.8554000000001 387.64034 -1230.3784 385.34819999999996 -1229.9454 383.82019999999994 L -1228.2435 377.55979999999994" stroke-linecap="round" />
</g>
<g transform="matrix(0.14 0 0 0.14 102.68 125.81)" id="MBepe-WfPfUr0nSgPqI5v"  >
<path style="stroke: rgb(0,8,14); stroke-width: 1; stroke-dasharray: none; stroke-linecap: round; stroke-dashoffset: 0; stroke-linejoin: round; stroke-miterlimit: 4; fill: none; fill-rule: nonzero; opacity: 1;" vector-effect="non-scaling-stroke"  transform=" translate(1223.05, -368.66)" d="M -1220.1 368.37 L -1224.5822999999998 369.6693 C -1225.2105 369.80543 -1226.1348999999998 369.31183000000004 -1225.9764999999998 368.98309 L -1225.3540999999998 367.63619" stroke-linecap="round" />
</g>
<g transform="matrix(0.14 0 0 0.14 56.94 55.99)" id="QYNsAv59YZ6cOu3OmaSWc"  >
<path style="stroke: rgb(0,8,14); stroke-width: 1; stroke-dasharray: none; stroke-linecap: round; stroke-dashoffset: 0; stroke-linejoin: round; stroke-miterlimit: 4; fill: none; fill-rule: nonzero; opacity: 1;" vector-effect="non-scaling-stroke"  transform=" translate(1540.95, 115.38)" d="M -1617 -32.591 L -1595.43 -130.101 C -1577.861 -205.853 -1507.866 -214.12 -1464.9 -175.844" stroke-linecap="round" />
</g>
<g transform="matrix(0.14 0 0 0.14 67.73 33.42)" id="mDswuv2A5MSuvV266BtdN"  >
<path style="stroke: rgb(0,8,14); stroke-width: 1; stroke-dasharray: none; stroke-linecap: round; stroke-dashoffset: 0; stroke-linejoin: round; stroke-miterlimit: 4; fill: none; fill-rule: nonzero; opacity: 1;" vector-effect="non-scaling-stroke"  transform=" translate(1465.99, 271.87)" d="M -1431.6 -323.62 L -1483.3159999999998 -297.937 C -1502.3279999999997 -285.765 -1506.0249999999999 -235.609 -1491.4666999999997 -220.11700000000002" stroke-linecap="round" />
</g>
<g transform="matrix(0.14 0 0 0.14 81.72 73.62)" id="tiGipupUONSmCjfQwTZPO"  >
<path style="stroke: rgb(0,8,14); stroke-width: 1; stroke-dasharray: none; stroke-linecap: round; stroke-dashoffset: 0; stroke-linejoin: round; stroke-miterlimit: 4; fill: none; fill-rule: nonzero; opacity: 1;" vector-effect="non-scaling-stroke"  transform=" translate(1368.78, -6.86)" d="M -1528.8 -183.72 C -1518.338 -185.7546 -1497.164 -184.7493 -1469.387 -162.359 L -1248.127 -7.5190000000000055 C -1218.2759999999998 14.492999999999995 -1203.989 55.327999999999996 -1210.182 87.86399999999999 L -1234.846 198.144" stroke-linecap="round" />
</g>
<g transform="matrix(0.14 0 0 0.14 101.43 110.26)" id="5yaG6W1BZESA4uXCd7LyS"  >
<path style="stroke: rgb(0,8,14); stroke-width: 1; stroke-dasharray: none; stroke-linecap: round; stroke-dashoffset: 0; stroke-linejoin: round; stroke-miterlimit: 4; fill: none; fill-rule: nonzero; opacity: 1;" vector-effect="non-scaling-stroke"  transform=" translate(1231.76, -260.86)" d="M -1257.1 373.54 L -1206.414 148.18" stroke-linecap="round" />
</g>
<g transform="matrix(0.14 0 0 0.14 121.51 76.37)" id="jNWAVW_VYqPCF9S7PL9cG"  >
<path style="stroke: rgb(0,8,14); stroke-width: 1; stroke-dasharray: none; stroke-linecap: round; stroke-dashoffset: 0; stroke-linejoin: round; stroke-miterlimit: 4; fill: none; fill-rule: nonzero; opacity: 1;" vector-effect="non-scaling-stroke"  transform=" translate(1092.17, -25.91)" d="M -1020.6 -45.694 L -1101.609 -0.4350000000000023 C -1118.148 10.480999999999998 -1154.993 37.111 -1163.7459999999999 97.512" stroke-linecap="round" />
</g>
<g transform="matrix(0.14 0 0 0.14 142.31 111.73)" id="sVy8OK_44iGC-eaufMcmw"  >
<path style="stroke: rgb(0,8,14); stroke-width: 1; stroke-dasharray: none; stroke-linecap: round; stroke-dashoffset: 0; stroke-linejoin: round; stroke-miterlimit: 4; fill: none; fill-rule: nonzero; opacity: 1;" vector-effect="non-scaling-stroke"  transform=" translate(947.63, -271.08)" d="M -978.48 312.83 C -959 304.0103 -921.591 249.873 -916.782 229.32999999999998" stroke-linecap="round" />
</g>
<g transform="matrix(0.14 0 0 0.14 98.63 86.57)" id="bNIiuYZKg0ISOtWcxoavW"  >
<path style="stroke: rgb(0,8,14); stroke-width: 1; stroke-dasharray: none; stroke-linecap: round; stroke-dashoffset: 0; stroke-linejoin: round; stroke-miterlimit: 4; fill: none; fill-rule: nonzero; opacity: 1;" vector-effect="non-scaling-stroke"  transform=" translate(1251.24, -96.62)" d="M -1291.9 -21.232 L -1244.431 13.232 C -1213.117 36.253 -1206.3110000000001 65.124 -1212.808 99.151 L -1238.681 214.481" stroke-linecap="round" />
</g>
<g transform="matrix(0.14 0 0 0.14 102.23 91.54)" id="mMgQgE7FwBHyHF5VqBALz"  >
<path style="stroke: rgb(0,8,14); stroke-width: 1; stroke-dasharray: none; stroke-linecap: round; stroke-dashoffset: 0; stroke-linejoin: round; stroke-miterlimit: 4; fill: none; fill-rule: nonzero; opacity: 1;" vector-effect="non-scaling-stroke"  transform=" translate(1226.18, -131.09)" d="M -1232.2 85.32 C -1221.064 95.78899999999999 -1218.646 108.923 -1220.96 124.40199999999999 L -1230.1741 176.87" stroke-linecap="round" />
</g>
<g transform="matrix(0.14 0 0 0.14 101.9 93.91)" id="ayPzfp5L1TAtXnVZF8wbO"  >
<path style="stroke: rgb(0,8,14); stroke-width: 1; stroke-dasharray: none; stroke-linecap: round; stroke-dashoffset: 0; stroke-linejoin: round; stroke-miterlimit: 4; fill: none; fill-rule: nonzero; opacity: 1;" vector-effect="non-scaling-stroke"  transform=" translate(1228.51, -147.52)" d="M -1232.2 113.07 C -1225.3793 120.9476 -1223.8997 130.831 -1225.3195 142.481 L -1230.9715 181.969" stroke-linecap="round" />
</g>
<g transform="matrix(0.14 0 0 0.14 97.58 108.59)" id="mOiBJerRXHj91e1C78U_K"  >
<path style="stroke: rgb(0,8,14); stroke-width: 1; stroke-dasharray: none; stroke-linecap: round; stroke-dashoffset: 0; stroke-linejoin: round; stroke-miterlimit: 4; fill: none; fill-rule: nonzero; opacity: 1;" vector-effect="non-scaling-stroke"  transform=" translate(1258.55, -249.24)" d="M -1174.6 73.662 L -1246.645 388.102 C -1251.6041 412.013 -1297.838 432.471 -1313.052 422.01399999999995 L -1342.4959999999999 401.77699999999993" stroke-linecap="round" />
</g>
<g transform="matrix(0.14 0 0 0.14 61.3 102.35)" id="PyZTXFLWN8FYzm8fWG-RY"  >
<path style="stroke: rgb(0,8,14); stroke-width: 1; stroke-dasharray: none; stroke-linecap: round; stroke-dashoffset: 0; stroke-linejoin: round; stroke-miterlimit: 4; fill: none; fill-rule: nonzero; opacity: 1;" vector-effect="non-scaling-stroke"  transform=" translate(1510.65, -206.04)" d="M -1373 381.96 L -1592.56 234.95 C -1652.982 189.112 -1653.643 119.39999999999999 -1643.192 78.36999999999998 L -1632.186 30.114999999999974" stroke-linecap="round" />
</g>
<g transform="matrix(0.14 0 0 0.14 52.54 99.01)" id="sS2MuW-r9rhwG3iJX6wSS"  >
<path style="stroke: rgb(0,8,14); stroke-width: 1; stroke-dasharray: none; stroke-linecap: round; stroke-dashoffset: 0; stroke-linejoin: round; stroke-miterlimit: 4; fill: none; fill-rule: nonzero; opacity: 1;" vector-effect="non-scaling-stroke"  transform=" translate(1571.56, -182.84)" d="M -1495.3 283.07 L -1605.72 207.928 C -1649.286 175.639 -1652.636 116.557 -1644.01 82.618" stroke-linecap="round" />
</g>
<g transform="matrix(0.14 0 0 0.14 50.72 96.47)" id="TGfft3oKwoOfecB08SLbP"  >
<path style="stroke: rgb(0,8,14); stroke-width: 1; stroke-dasharray: none; stroke-linecap: round; stroke-dashoffset: 0; stroke-linejoin: round; stroke-miterlimit: 4; fill: none; fill-rule: nonzero; opacity: 1;" vector-effect="non-scaling-stroke"  transform=" translate(1584.21, -165.22)" d="M -1521.2 248.25 L -1612.4370000000001 186 C -1648.432 159.251 -1651.2 110.305 -1644.073 82.19" stroke-linecap="round" />
</g>
<g transform="matrix(0.14 0 0 0.14 47.12 93.72)" id="eIJOYOPYWXyOc_Dy84mEU"  >
<path style="stroke: rgb(0,8,14); stroke-width: 1; stroke-dasharray: none; stroke-linecap: round; stroke-dashoffset: 0; stroke-linejoin: round; stroke-miterlimit: 4; fill: none; fill-rule: nonzero; opacity: 1;" vector-effect="non-scaling-stroke"  transform=" translate(1609.22, -146.15)" d="M -1570.4 197.79 L -1626.605 159.076 C -1648.779 142.44 -1650.484 112.00099999999999 -1646.093 94.51299999999999" stroke-linecap="round" />
</g>
<g transform="matrix(0.14 0 0 0.14 45.28 91.32)" id="TqBxKOkIc49J6XYEBdYC1"  >
<path style="stroke: rgb(0,8,14); stroke-width: 1; stroke-dasharray: none; stroke-linecap: round; stroke-dashoffset: 0; stroke-linejoin: round; stroke-miterlimit: 4; fill: none; fill-rule: nonzero; opacity: 1;" vector-effect="non-scaling-stroke"  transform=" translate(1622.04, -129.57)" d="M -1596 164.62 L -1633.699 138.34 C -1648.5720000000001 127.047 -1649.7150000000001 106.38300000000001 -1646.77 94.512" stroke-linecap="round" />
</g>
<g transform="matrix(0.14 0 0 0.14 43.36 88.9)" id="cRTk1s5ERDpfIiYLM0mB5"  >
<path style="stroke: rgb(0,8,14); stroke-width: 1; stroke-dasharray: none; stroke-linecap: round; stroke-dashoffset: 0; stroke-linejoin: round; stroke-miterlimit: 4; fill: none; fill-rule: nonzero; opacity: 1;" vector-effect="non-scaling-stroke"  transform=" translate(1635.35, -112.77)" d="M -1623.9 128.9 L -1640.4830000000002 116.807 C -1647.0254000000002 111.6104 -1647.5279000000003 102.101 -1646.2320000000002 96.638" stroke-linecap="round" />
</g>
<g transform="matrix(0.14 0 0 0.14 42.66 86.45)" id="tAWqw3JnLVebyBg1YVcBF"  >
<path style="stroke: rgb(0,8,14); stroke-width: 1; stroke-dasharray: none; stroke-linecap: round; stroke-dashoffset: 0; stroke-linejoin: round; stroke-miterlimit: 4; fill: none; fill-rule: nonzero; opacity: 1;" vector-effect="non-scaling-stroke"  transform=" translate(1640.2, -95.76)" d="M -1635.3 103.39 L -1642.3926999999999 97.6729 C -1645.1908999999998 95.2162 -1645.4054999999998 90.72 -1644.8509 88.1368" stroke-linecap="round" />
</g>
<g transform="matrix(0.14 0 0 0.14 42.85 84.48)" id="h46cp7rVeVTfdk2Obkbbw"  >
<path style="stroke: rgb(0,8,14); stroke-width: 1; stroke-dasharray: none; stroke-linecap: round; stroke-dashoffset: 0; stroke-linejoin: round; stroke-miterlimit: 4; fill: none; fill-rule: nonzero; opacity: 1;" vector-effect="non-scaling-stroke"  transform=" translate(1638.9, -82.09)" d="M -1635.7 87.513 L -1640.3343 83.44760000000001 C -1642.1627 81.70060000000001 -1642.3026 78.5031 -1641.9401 76.66600000000001" stroke-linecap="round" />
</g>
<g transform="matrix(0.14 0 0 0.14 109.51 73.74)" id="x0SEdilM_pR3DENl0_XIT"  >
<path style="stroke: rgb(0,8,14); stroke-width: 1; stroke-dasharray: none; stroke-linecap: round; stroke-dashoffset: 0; stroke-linejoin: round; stroke-miterlimit: 4; fill: none; fill-rule: nonzero; opacity: 1;" vector-effect="non-scaling-stroke"  transform=" translate(1175.6, -7.69)" d="M -1192.5 25.945 C -1185.9213 2.4110000000000014 -1231.427 -18.125999999999998 -1176.767 -7.854999999999997 C -1164.15 -5.484099999999997 -1131.49 -8.188199999999997 -1156.1090000000002 6.221000000000004" stroke-linecap="round" />
</g>
<g transform="matrix(0.14 0 0 0.14 53.37 40.68)" id="vHrDzpYN3PX4-vLLfPQNk"  >
<path style="stroke: rgb(0,8,14); stroke-width: 1; stroke-dasharray: none; stroke-linecap: round; stroke-dashoffset: 0; stroke-linejoin: round; stroke-miterlimit: 4; fill: none; fill-rule: nonzero; opacity: 1;" vector-effect="non-scaling-stroke"  transform=" translate(1565.79, 221.51)" d="M -1586.3 -181.77 C -1575.971 -228.084 -1559.446 -249.62400000000002 -1545.274 -261.25300000000004" stroke-linecap="round" />
</g>
<g transform="matrix(0.14 0 0 0.14 57.91 38.36)" id="A5uaCNDGIlM1dkbMg3lLJ"  >
<path style="stroke: rgb(0,8,14); stroke-width: 1; stroke-dasharray: none; stroke-linecap: round; stroke-dashoffset: 0; stroke-linejoin: round; stroke-miterlimit: 4; fill: none; fill-rule: nonzero; opacity: 1;" vector-effect="non-scaling-stroke"  transform=" translate(1534.22, 237.62)" d="M -1562 -214.8 C -1549.965 -246.155 -1523.506 -264.05400000000003 -1517.521 -259.832 C -1509.2328 -253.9855 -1517.433 -241.63299999999998 -1506.449 -218.727" stroke-linecap="round" />
</g>
<g transform="matrix(0.14 0 0 0.14 115.38 18.14)" id="gsGWBStbxvCzh5QNmzWhp"  >
<path style="stroke: rgb(0,8,14); stroke-width: 1; stroke-dasharray: none; stroke-linecap: round; stroke-dashoffset: 0; stroke-linejoin: round; stroke-miterlimit: 4; fill: none; fill-rule: nonzero; opacity: 1;" vector-effect="non-scaling-stroke"  transform=" translate(1134.83, 377.8)" d="M -1143.4 -376.43 L -1135.9689 -378.6882 C -1133.7522000000001 -379.36181 -1129.6161000000002 -379.41091 -1126.2674000000002 -378.26333999999997" stroke-linecap="round" />
</g>
<g transform="matrix(0.14 0 0 0.14 115.83 63.77)" id="nKA1E8Q_iaUWqRZPiGhmt"  >
<path style="stroke: rgb(0,8,14); stroke-width: 1; stroke-dasharray: none; stroke-linecap: round; stroke-dashoffset: 0; stroke-linejoin: round; stroke-miterlimit: 4; fill: none; fill-rule: nonzero; opacity: 1;" vector-effect="non-scaling-stroke"  transform=" translate(1131.72, 61.45)" d="M -1255.2 -50.632 C -1221.587 -27.182 -1170.03 -10.905999999999999 -1109.49 -43.4045 L -1008.24 -97.7525" stroke-linecap="round" />
</g>
<g transform="matrix(0.14 0 0 0.14 57 39.13)" id="gfm6u1cPcdKzfhQJfinJB"  >
<path style="stroke: rgb(0,8,14); stroke-width: 1; stroke-dasharray: none; stroke-linecap: round; stroke-dashoffset: 0; stroke-linejoin: round; stroke-miterlimit: 4; fill: none; fill-rule: nonzero; opacity: 1;" vector-effect="non-scaling-stroke"  transform=" translate(1540.6, 232.27)" d="M -1562 -214.8 C -1552.7064 -238.8 -1532.274 -252.5 -1527.652 -249.26800000000003 C -1521.2513000000001 -244.79290000000003 -1527.678 -237.36400000000003 -1519.1963 -219.83100000000002" stroke-linecap="round" />
</g>
<g transform="matrix(0.14 0 0 0.14 56.02 39.93)" id="7812DTwn1E_tOp1hckfgm"  >
<path style="stroke: rgb(0,8,14); stroke-width: 1; stroke-dasharray: none; stroke-linecap: round; stroke-dashoffset: 0; stroke-linejoin: round; stroke-miterlimit: 4; fill: none; fill-rule: nonzero; opacity: 1;" vector-effect="non-scaling-stroke"  transform=" translate(1547.4, 226.74)" d="M -1562 -214.8 C -1555.5389 -231.199 -1541.333 -240.56 -1538.12 -238.352 C -1533.6698999999999 -235.29410000000001 -1538.6908999999998 -232.0311 -1532.7936 -220.05100000000002" stroke-linecap="round" />
</g>
<g transform="matrix(0.14 0 0 0.14 54.7 41.36)" id="mf4PQ8VJSHp-eTz5HYc8j"  >
<path style="stroke: rgb(0,8,14); stroke-width: 1; stroke-dasharray: none; stroke-linecap: round; stroke-dashoffset: 0; stroke-linejoin: round; stroke-miterlimit: 4; fill: none; fill-rule: nonzero; opacity: 1;" vector-effect="non-scaling-stroke"  transform=" translate(1556.53, 216.8)" d="M -1565.4 -207.15 C -1562.0443 -216.48770000000002 -1551.2630000000001 -227.461 -1549.594 -226.375 C -1547.2832 -224.8714 -1550.7226 -224.355 -1547.6601 -218.4643" stroke-linecap="round" />
</g>
<g transform="matrix(0.14 0 0 0.14 108.24 74.61)" id="nRGTu3K4jvj21qrcXUvVB"  >
<path style="stroke: rgb(0,8,14); stroke-width: 1; stroke-dasharray: none; stroke-linecap: round; stroke-dashoffset: 0; stroke-linejoin: round; stroke-miterlimit: 4; fill: none; fill-rule: nonzero; opacity: 1;" vector-effect="non-scaling-stroke"  transform=" translate(1184.44, -13.67)" d="M -1191.5 25.345 C -1186.2308 14.757 -1210.882 -3.2310000000000016 -1174.121 3.4309999999999974" stroke-linecap="round" />
</g>
<g transform="matrix(0.14 0 0 0.14 107.82 76.7)" id="2NCLF-wwSkaZ0x6C7LjeR"  >
<path style="stroke: rgb(0,8,14); stroke-width: 1; stroke-dasharray: none; stroke-linecap: round; stroke-dashoffset: 0; stroke-linejoin: round; stroke-miterlimit: 4; fill: none; fill-rule: nonzero; opacity: 1;" vector-effect="non-scaling-stroke"  transform=" translate(1187.33, -28.17)" d="M -1194.2 42.987 C -1186.5133 18.344 -1201.5032 8.888000000000005 -1180.463 15.323" stroke-linecap="round" />
</g>
<g transform="matrix(0.14 0 0 0.14 97.85 135.06)" id="fDhNHV6VD0N4-0AOmAF4b"  >
<path style="stroke: rgb(0,8,14); stroke-width: 1; stroke-dasharray: none; stroke-linecap: round; stroke-dashoffset: 0; stroke-linejoin: round; stroke-miterlimit: 4; fill: none; fill-rule: nonzero; opacity: 1;" vector-effect="non-scaling-stroke"  transform=" translate(1256.62, -432.82)" d="M -1245.4 413.88 C -1245.4 413.88 -1263.4460000000001 432.491 -1281.476 434.276 C -1291.0695 443.5539 -1246.884 451.935 -1230.4140000000002 451.753" stroke-linecap="round" />
</g>
<g transform="matrix(0.14 0 0 0.14 98.36 135.35)" id="P6HfCNp9y2x31bo1FMM30"  >
<path style="stroke: rgb(0,8,14); stroke-width: 1; stroke-dasharray: none; stroke-linecap: round; stroke-dashoffset: 0; stroke-linejoin: round; stroke-miterlimit: 4; fill: none; fill-rule: nonzero; opacity: 1;" vector-effect="non-scaling-stroke"  transform=" translate(1253.11, -434.82)" d="M -1264.2 431.86 C -1268.4769000000001 434.9931 -1248.7740000000001 437.82890000000003 -1241.429 437.7693" stroke-linecap="round" />
</g>
<g transform="matrix(0.14 0 0 0.14 98.91 133.99)" id="b7ULz8j6EFzYlLy58VJNG"  >
<path style="stroke: rgb(0,8,14); stroke-width: 1; stroke-dasharray: none; stroke-linecap: round; stroke-dashoffset: 0; stroke-linejoin: round; stroke-miterlimit: 4; fill: none; fill-rule: nonzero; opacity: 1;" vector-effect="non-scaling-stroke"  transform=" translate(1249.26, -425.36)" d="M -1255 424.96 C -1257.2142 425.37498 -1247.0068 425.75937 -1243.202 425.75424" stroke-linecap="round" />
</g>
<g transform="matrix(0.14 0 0 0.14 157.29 49.31)" id="i5hy9V9vWLmWs_U2aqnAR"  >
<path style="stroke: rgb(0,8,14); stroke-width: 1; stroke-dasharray: none; stroke-linecap: round; stroke-dashoffset: 0; stroke-linejoin: round; stroke-miterlimit: 4; fill: none; fill-rule: nonzero; opacity: 1;" vector-effect="non-scaling-stroke"  transform=" translate(843.51, 161.7)" d="M -848.77 -158.16 C -843.3415 -163.5405 -842.8190999999999 -167.1876 -842.6421 -172.704 C -840.8480000000001 -168.5985 -837.6194 -160.388 -838.3481 -150.68900000000002" stroke-linecap="round" />
</g>
<g transform="matrix(0.14 0 0 0.14 111.23 65.17)" id="vRi_H6z8--ZmEcWTI6VWP"  >
<path style="stroke: rgb(0,8,14); stroke-width: 1; stroke-dasharray: none; stroke-linecap: round; stroke-dashoffset: 0; stroke-linejoin: round; stroke-miterlimit: 4; fill: none; fill-rule: nonzero; opacity: 1;" vector-effect="non-scaling-stroke"  transform=" translate(1163.66, 51.72)" d="M -1247.1 -44.699 C -1224.386 -29.464999999999996 -1189.547 -18.891 -1148.636 -40.0002 L -1080.221 -75.3022" stroke-linecap="round" />
</g>
<g transform="matrix(0.14 0 0 0.14 106.69 66.49)" id="C19CbiaoeZ9r0kw08PSiB"  >
<path style="stroke: rgb(0,8,14); stroke-width: 1; stroke-dasharray: none; stroke-linecap: round; stroke-dashoffset: 0; stroke-linejoin: round; stroke-miterlimit: 4; fill: none; fill-rule: nonzero; opacity: 1;" vector-effect="non-scaling-stroke"  transform=" translate(1195.2, 42.6)" d="M -1236.5 -39.57 C -1225.257 -32.983000000000004 -1208.013 -28.41 -1187.767 -37.5327 L -1153.9080000000001 -52.789699999999996" stroke-linecap="round" />
</g>
<g transform="matrix(0.14 0 0 0.14 102.77 66.3)" id="nRhMpaws7Uat-mAo-LKnu"  >
<path style="stroke: rgb(0,8,14); stroke-width: 1; stroke-dasharray: none; stroke-linecap: round; stroke-dashoffset: 0; stroke-linejoin: round; stroke-miterlimit: 4; fill: none; fill-rule: nonzero; opacity: 1;" vector-effect="non-scaling-stroke"  transform=" translate(1222.46, 43.91)" d="M -1242.4 -42.903 C -1236.9699 -40.6977 -1228.642 -39.1652 -1218.8670000000002 -42.21436 L -1202.5190000000002 -47.313559999999995" stroke-linecap="round" />
</g>
<g transform="matrix(0.14 0 0 0.14 99.42 65.44)" id="H81DIDb44FJKWo1F-A9gm"  >
<path style="stroke: rgb(0,8,14); stroke-width: 1; stroke-dasharray: none; stroke-linecap: round; stroke-dashoffset: 0; stroke-linejoin: round; stroke-miterlimit: 4; fill: none; fill-rule: nonzero; opacity: 1;" vector-effect="non-scaling-stroke"  transform=" translate(1245.72, 49.89)" d="M -1256.5 -50.518 C -1254.4153 -48.9191 -1249.3861 -48.0068 -1244.206 -49.1337 L -1234.9458 -51.148399999999995" stroke-linecap="round" />
</g>
</svg>