<svg id="visual" viewBox="0 0 1000 150" width="1000" height="150" xmlns="http://www.w3.org/2000/svg" xmlns:xlink="http://www.w3.org/1999/xlink" version="1.1"><rect x="0" y="0" width="1000" height="150" fill="#001220"></rect><path d="M0 115L11.2 108.3C22.3 101.7 44.7 88.3 66.8 87.5C89 86.7 111 98.3 133.2 100.2C155.3 102 177.7 94 200 92.8C222.3 91.7 244.7 97.3 266.8 103.7C289 110 311 117 333.2 115.2C355.3 113.3 377.7 102.7 400 102.8C422.3 103 444.7 114 466.8 118.5C489 123 511 121 533.2 113.7C555.3 106.3 577.7 93.7 600 94.2C622.3 94.7 644.7 108.3 666.8 110.5C689 112.7 711 103.3 733.2 103C755.3 102.7 777.7 111.3 800 107C822.3 102.7 844.7 85.3 866.8 82.8C889 80.3 911 92.7 933.2 98.3C955.3 104 977.7 103 988.8 102.5L1000 102L1000 0L988.8 0C977.7 0 955.3 0 933.2 0C911 0 889 0 866.8 0C844.7 0 822.3 0 800 0C777.7 0 755.3 0 733.2 0C711 0 689 0 666.8 0C644.7 0 622.3 0 600 0C577.7 0 555.3 0 533.2 0C511 0 489 0 466.8 0C444.7 0 422.3 0 400 0C377.7 0 355.3 0 333.2 0C311 0 289 0 266.8 0C244.7 0 222.3 0 200 0C177.7 0 155.3 0 133.2 0C111 0 89 0 66.8 0C44.7 0 22.3 0 11.2 0L0 0Z" fill="#b7fbff"></path><path d="M0 98L11.2 93.5C22.3 89 44.7 80 66.8 81.3C89 82.7 111 94.3 133.2 91.8C155.3 89.3 177.7 72.7 200 66.8C222.3 61 244.7 66 266.8 74.2C289 82.3 311 93.7 333.2 98.8C355.3 104 377.7 103 400 99.2C422.3 95.3 444.7 88.7 466.8 81.8C489 75 511 68 533.2 68.3C555.3 68.7 577.7 76.3 600 83.8C622.3 91.3 644.7 98.7 666.8 96.3C689 94 711 82 733.2 75.3C755.3 68.7 777.7 67.3 800 71.8C822.3 76.3 844.7 86.7 866.8 87.5C889 88.3 911 79.7 933.2 77C955.3 74.3 977.7 77.7 988.8 79.3L1000 81L1000 0L988.8 0C977.7 0 955.3 0 933.2 0C911 0 889 0 866.8 0C844.7 0 822.3 0 800 0C777.7 0 755.3 0 733.2 0C711 0 689 0 666.8 0C644.7 0 622.3 0 600 0C577.7 0 555.3 0 533.2 0C511 0 489 0 466.8 0C444.7 0 422.3 0 400 0C377.7 0 355.3 0 333.2 0C311 0 289 0 266.8 0C244.7 0 222.3 0 200 0C177.7 0 155.3 0 133.2 0C111 0 89 0 66.8 0C44.7 0 22.3 0 11.2 0L0 0Z" fill="#84d8ef"></path><path d="M0 55L11.2 57.7C22.3 60.3 44.7 65.7 66.8 71.3C89 77 111 83 133.2 82.8C155.3 82.7 177.7 76.3 200 73.3C222.3 70.3 244.7 70.7 266.8 73.3C289 76 311 81 333.2 82.7C355.3 84.3 377.7 82.7 400 80.3C422.3 78 444.7 75 466.8 73.8C489 72.7 511 73.3 533.2 70.2C555.3 67 577.7 60 600 55C622.3 50 644.7 47 666.8 47.3C689 47.7 711 51.3 733.2 58.3C755.3 65.3 777.7 75.7 800 79.8C822.3 84 844.7 82 866.8 75.7C889 69.3 911 58.7 933.2 59.3C955.3 60 977.7 72 988.8 78L1000 84L1000 0L988.8 0C977.7 0 955.3 0 933.2 0C911 0 889 0 866.8 0C844.7 0 822.3 0 800 0C777.7 0 755.3 0 733.2 0C711 0 689 0 666.8 0C644.7 0 622.3 0 600 0C577.7 0 555.3 0 533.2 0C511 0 489 0 466.8 0C444.7 0 422.3 0 400 0C377.7 0 355.3 0 333.2 0C311 0 289 0 266.8 0C244.7 0 222.3 0 200 0C177.7 0 155.3 0 133.2 0C111 0 89 0 66.8 0C44.7 0 22.3 0 11.2 0L0 0Z" fill="#59b4df"></path><path d="M0 64L11.2 64.8C22.3 65.7 44.7 67.3 66.8 64.5C89 61.7 111 54.3 133.2 50.8C155.3 47.3 177.7 47.7 200 46.7C222.3 45.7 244.7 43.3 266.8 46C289 48.7 311 56.3 333.2 60.5C355.3 64.7 377.7 65.3 400 63.5C422.3 61.7 444.7 57.3 466.8 55.7C489 54 511 55 533.2 55C555.3 55 577.7 54 600 52.5C622.3 51 644.7 49 666.8 52C689 55 711 63 733.2 62C755.3 61 777.7 51 800 47C822.3 43 844.7 45 866.8 48.3C889 51.7 911 56.3 933.2 58.5C955.3 60.7 977.7 60.3 988.8 60.2L1000 60L1000 0L988.8 0C977.7 0 955.3 0 933.2 0C911 0 889 0 866.8 0C844.7 0 822.3 0 800 0C777.7 0 755.3 0 733.2 0C711 0 689 0 666.8 0C644.7 0 622.3 0 600 0C577.7 0 555.3 0 533.2 0C511 0 489 0 466.8 0C444.7 0 422.3 0 400 0C377.7 0 355.3 0 333.2 0C311 0 289 0 266.8 0C244.7 0 222.3 0 200 0C177.7 0 155.3 0 133.2 0C111 0 89 0 66.8 0C44.7 0 22.3 0 11.2 0L0 0Z" fill="#448ecc"></path><path d="M0 36L11.2 38.2C22.3 40.3 44.7 44.7 66.8 41.8C89 39 111 29 133.2 24C155.3 19 177.7 19 200 24C222.3 29 244.7 39 266.8 42C289 45 311 41 333.2 37.3C355.3 33.7 377.7 30.3 400 27.3C422.3 24.3 444.7 21.7 466.8 21.3C489 21 511 23 533.2 26.2C555.3 29.3 577.7 33.7 600 35.7C622.3 37.7 644.7 37.3 666.8 38.8C689 40.3 711 43.7 733.2 44.7C755.3 45.7 777.7 44.3 800 42C822.3 39.7 844.7 36.3 866.8 37.7C889 39 911 45 933.2 45.3C955.3 45.7 977.7 40.3 988.8 37.7L1000 35L1000 0L988.8 0C977.7 0 955.3 0 933.2 0C911 0 889 0 866.8 0C844.7 0 822.3 0 800 0C777.7 0 755.3 0 733.2 0C711 0 689 0 666.8 0C644.7 0 622.3 0 600 0C577.7 0 555.3 0 533.2 0C511 0 489 0 466.8 0C444.7 0 422.3 0 400 0C377.7 0 355.3 0 333.2 0C311 0 289 0 266.8 0C244.7 0 222.3 0 200 0C177.7 0 155.3 0 133.2 0C111 0 89 0 66.8 0C44.7 0 22.3 0 11.2 0L0 0Z" fill="#4866b0"></path><path d="M0 33L11.2 29.5C22.3 26 44.7 19 66.8 14.8C89 10.7 111 9.3 133.2 9.3C155.3 9.3 177.7 10.7 200 11C222.3 11.3 244.7 10.7 266.8 11.5C289 12.3 311 14.7 333.2 17.5C355.3 20.3 377.7 23.7 400 24C422.3 24.3 444.7 21.7 466.8 19.8C489 18 511 17 533.2 16.8C555.3 16.7 577.7 17.3 600 18.3C622.3 19.3 644.7 20.7 666.8 20.2C689 19.7 711 17.3 733.2 18.5C755.3 19.7 777.7 24.3 800 27C822.3 29.7 844.7 30.3 866.8 30.8C889 31.3 911 31.7 933.2 30.2C955.3 28.7 977.7 25.3 988.8 23.7L1000 22L1000 0L988.8 0C977.7 0 955.3 0 933.2 0C911 0 889 0 866.8 0C844.7 0 822.3 0 800 0C777.7 0 755.3 0 733.2 0C711 0 689 0 666.8 0C644.7 0 622.3 0 600 0C577.7 0 555.3 0 533.2 0C511 0 489 0 466.8 0C444.7 0 422.3 0 400 0C377.7 0 355.3 0 333.2 0C311 0 289 0 266.8 0C244.7 0 222.3 0 200 0C177.7 0 155.3 0 133.2 0C111 0 89 0 66.8 0C44.7 0 22.3 0 11.2 0L0 0Z" fill="#553c8b"></path></svg>