<svg id="visual" viewBox="0 0 1000 150" width="1000" height="150" xmlns="http://www.w3.org/2000/svg" xmlns:xlink="http://www.w3.org/1999/xlink" version="1.1"><rect x="0" y="0" width="1000" height="150" fill="#1b1b1b"></rect><path d="M0 119L16.7 123.5C33.3 128 66.7 137 100 141.3C133.3 145.7 166.7 145.3 200 140.2C233.3 135 266.7 125 300 124.3C333.3 123.7 366.7 132.3 400 137C433.3 141.7 466.7 142.3 500 140.3C533.3 138.3 566.7 133.7 600 130.7C633.3 127.7 666.7 126.3 700 126C733.3 125.7 766.7 126.3 800 128.7C833.3 131 866.7 135 900 134.3C933.3 133.7 966.7 128.3 983.3 125.7L1000 123L1000 0L983.3 0C966.7 0 933.3 0 900 0C866.7 0 833.3 0 800 0C766.7 0 733.3 0 700 0C666.7 0 633.3 0 600 0C566.7 0 533.3 0 500 0C466.7 0 433.3 0 400 0C366.7 0 333.3 0 300 0C266.7 0 233.3 0 200 0C166.7 0 133.3 0 100 0C66.7 0 33.3 0 16.7 0L0 0Z" fill="#7453ec"></path><path d="M0 103L16.7 103.2C33.3 103.3 66.7 103.7 100 104.7C133.3 105.7 166.7 107.3 200 107C233.3 106.7 266.7 104.3 300 107.5C333.3 110.7 366.7 119.3 400 121.3C433.3 123.3 466.7 118.7 500 115C533.3 111.3 566.7 108.7 600 110.5C633.3 112.3 666.7 118.7 700 122.5C733.3 126.3 766.7 127.7 800 122.5C833.3 117.3 866.7 105.7 900 104.5C933.3 103.3 966.7 112.7 983.3 117.3L1000 122L1000 0L983.3 0C966.7 0 933.3 0 900 0C866.7 0 833.3 0 800 0C766.7 0 733.3 0 700 0C666.7 0 633.3 0 600 0C566.7 0 533.3 0 500 0C466.7 0 433.3 0 400 0C366.7 0 333.3 0 300 0C266.7 0 233.3 0 200 0C166.7 0 133.3 0 100 0C66.7 0 33.3 0 16.7 0L0 0Z" fill="#704fdb"></path><path d="M0 84L16.7 83.5C33.3 83 66.7 82 100 82.8C133.3 83.7 166.7 86.3 200 85.7C233.3 85 266.7 81 300 83.2C333.3 85.3 366.7 93.7 400 95.2C433.3 96.7 466.7 91.3 500 92C533.3 92.7 566.7 99.3 600 102.8C633.3 106.3 666.7 106.7 700 106.3C733.3 106 766.7 105 800 104.7C833.3 104.3 866.7 104.7 900 101.3C933.3 98 966.7 91 983.3 87.5L1000 84L1000 0L983.3 0C966.7 0 933.3 0 900 0C866.7 0 833.3 0 800 0C766.7 0 733.3 0 700 0C666.7 0 633.3 0 600 0C566.7 0 533.3 0 500 0C466.7 0 433.3 0 400 0C366.7 0 333.3 0 300 0C266.7 0 233.3 0 200 0C166.7 0 133.3 0 100 0C66.7 0 33.3 0 16.7 0L0 0Z" fill="#6b4bca"></path><path d="M0 73L16.7 71.2C33.3 69.3 66.7 65.7 100 66.3C133.3 67 166.7 72 200 72C233.3 72 266.7 67 300 69.3C333.3 71.7 366.7 81.3 400 82.2C433.3 83 466.7 75 500 70C533.3 65 566.7 63 600 66.8C633.3 70.7 666.7 80.3 700 81.2C733.3 82 766.7 74 800 72C833.3 70 866.7 74 900 77.2C933.3 80.3 966.7 82.7 983.3 83.8L1000 85L1000 0L983.3 0C966.7 0 933.3 0 900 0C866.7 0 833.3 0 800 0C766.7 0 733.3 0 700 0C666.7 0 633.3 0 600 0C566.7 0 533.3 0 500 0C466.7 0 433.3 0 400 0C366.7 0 333.3 0 300 0C266.7 0 233.3 0 200 0C166.7 0 133.3 0 100 0C66.7 0 33.3 0 16.7 0L0 0Z" fill="#6647ba"></path><path d="M0 54L16.7 56.8C33.3 59.7 66.7 65.3 100 68.2C133.3 71 166.7 71 200 71.2C233.3 71.3 266.7 71.7 300 66.8C333.3 62 366.7 52 400 46.2C433.3 40.3 466.7 38.7 500 43C533.3 47.3 566.7 57.7 600 58.5C633.3 59.3 666.7 50.7 700 48.5C733.3 46.3 766.7 50.7 800 53C833.3 55.3 866.7 55.7 900 53.2C933.3 50.7 966.7 45.3 983.3 42.7L1000 40L1000 0L983.3 0C966.7 0 933.3 0 900 0C866.7 0 833.3 0 800 0C766.7 0 733.3 0 700 0C666.7 0 633.3 0 600 0C566.7 0 533.3 0 500 0C466.7 0 433.3 0 400 0C366.7 0 333.3 0 300 0C266.7 0 233.3 0 200 0C166.7 0 133.3 0 100 0C66.7 0 33.3 0 16.7 0L0 0Z" fill="#6143aa"></path><path d="M0 30L16.7 29.3C33.3 28.7 66.7 27.3 100 28.2C133.3 29 166.7 32 200 35.8C233.3 39.7 266.7 44.3 300 44.7C333.3 45 366.7 41 400 39.5C433.3 38 466.7 39 500 39C533.3 39 566.7 38 600 34.7C633.3 31.3 666.7 25.7 700 23.3C733.3 21 766.7 22 800 27.8C833.3 33.7 866.7 44.3 900 48C933.3 51.7 966.7 48.3 983.3 46.7L1000 45L1000 0L983.3 0C966.7 0 933.3 0 900 0C866.7 0 833.3 0 800 0C766.7 0 733.3 0 700 0C666.7 0 633.3 0 600 0C566.7 0 533.3 0 500 0C466.7 0 433.3 0 400 0C366.7 0 333.3 0 300 0C266.7 0 233.3 0 200 0C166.7 0 133.3 0 100 0C66.7 0 33.3 0 16.7 0L0 0Z" fill="#5b409a"></path><path d="M0 24L16.7 22C33.3 20 66.7 16 100 14.3C133.3 12.7 166.7 13.3 200 12.5C233.3 11.7 266.7 9.3 300 9C333.3 8.7 366.7 10.3 400 13.7C433.3 17 466.7 22 500 21.5C533.3 21 566.7 15 600 14.2C633.3 13.3 666.7 17.7 700 20.5C733.3 23.3 766.7 24.7 800 21.2C833.3 17.7 866.7 9.3 900 7.3C933.3 5.3 966.7 9.7 983.3 11.8L1000 14L1000 0L983.3 0C966.7 0 933.3 0 900 0C866.7 0 833.3 0 800 0C766.7 0 733.3 0 700 0C666.7 0 633.3 0 600 0C566.7 0 533.3 0 500 0C466.7 0 433.3 0 400 0C366.7 0 333.3 0 300 0C266.7 0 233.3 0 200 0C166.7 0 133.3 0 100 0C66.7 0 33.3 0 16.7 0L0 0Z" fill="#553c8b"></path></svg>