<svg id="visual" viewBox="0 0 1000 150" width="1000" height="150" xmlns="http://www.w3.org/2000/svg" xmlns:xlink="http://www.w3.org/1999/xlink" version="1.1"><rect x="0" y="0" width="1000" height="150" fill="#1b1b1b"></rect><path d="M0 29L16.7 24.5C33.3 20 66.7 11 100 6.7C133.3 2.3 166.7 2.7 200 7.8C233.3 13 266.7 23 300 23.7C333.3 24.3 366.7 15.7 400 11C433.3 6.3 466.7 5.7 500 7.7C533.3 9.7 566.7 14.3 600 17.3C633.3 20.3 666.7 21.7 700 22C733.3 22.3 766.7 21.7 800 19.3C833.3 17 866.7 13 900 13.7C933.3 14.3 966.7 19.7 983.3 22.3L1000 25L1000 151L983.3 151C966.7 151 933.3 151 900 151C866.7 151 833.3 151 800 151C766.7 151 733.3 151 700 151C666.7 151 633.3 151 600 151C566.7 151 533.3 151 500 151C466.7 151 433.3 151 400 151C366.7 151 333.3 151 300 151C266.7 151 233.3 151 200 151C166.7 151 133.3 151 100 151C66.7 151 33.3 151 16.7 151L0 151Z" fill="#7453ec"></path><path d="M0 45L16.7 44.8C33.3 44.7 66.7 44.3 100 43.3C133.3 42.3 166.7 40.7 200 41C233.3 41.3 266.7 43.7 300 40.5C333.3 37.3 366.7 28.7 400 26.7C433.3 24.7 466.7 29.3 500 33C533.3 36.7 566.7 39.3 600 37.5C633.3 35.7 666.7 29.3 700 25.5C733.3 21.7 766.7 20.3 800 25.5C833.3 30.7 866.7 42.3 900 43.5C933.3 44.7 966.7 35.3 983.3 30.7L1000 26L1000 151L983.3 151C966.7 151 933.3 151 900 151C866.7 151 833.3 151 800 151C766.7 151 733.3 151 700 151C666.7 151 633.3 151 600 151C566.7 151 533.3 151 500 151C466.7 151 433.3 151 400 151C366.7 151 333.3 151 300 151C266.7 151 233.3 151 200 151C166.7 151 133.3 151 100 151C66.7 151 33.3 151 16.7 151L0 151Z" fill="#704fdb"></path><path d="M0 64L16.7 64.5C33.3 65 66.7 66 100 65.2C133.3 64.3 166.7 61.7 200 62.3C233.3 63 266.7 67 300 64.8C333.3 62.7 366.7 54.3 400 52.8C433.3 51.3 466.7 56.7 500 56C533.3 55.3 566.7 48.7 600 45.2C633.3 41.7 666.7 41.3 700 41.7C733.3 42 766.7 43 800 43.3C833.3 43.7 866.7 43.3 900 46.7C933.3 50 966.7 57 983.3 60.5L1000 64L1000 151L983.3 151C966.7 151 933.3 151 900 151C866.7 151 833.3 151 800 151C766.7 151 733.3 151 700 151C666.7 151 633.3 151 600 151C566.7 151 533.3 151 500 151C466.7 151 433.3 151 400 151C366.7 151 333.3 151 300 151C266.7 151 233.3 151 200 151C166.7 151 133.3 151 100 151C66.7 151 33.3 151 16.7 151L0 151Z" fill="#6b4bca"></path><path d="M0 75L16.7 76.8C33.3 78.7 66.7 82.3 100 81.7C133.3 81 166.7 76 200 76C233.3 76 266.7 81 300 78.7C333.3 76.3 366.7 66.7 400 65.8C433.3 65 466.7 73 500 78C533.3 83 566.7 85 600 81.2C633.3 77.3 666.7 67.7 700 66.8C733.3 66 766.7 74 800 76C833.3 78 866.7 74 900 70.8C933.3 67.7 966.7 65.3 983.3 64.2L1000 63L1000 151L983.3 151C966.7 151 933.3 151 900 151C866.7 151 833.3 151 800 151C766.7 151 733.3 151 700 151C666.7 151 633.3 151 600 151C566.7 151 533.3 151 500 151C466.7 151 433.3 151 400 151C366.7 151 333.3 151 300 151C266.7 151 233.3 151 200 151C166.7 151 133.3 151 100 151C66.7 151 33.3 151 16.7 151L0 151Z" fill="#6647ba"></path><path d="M0 94L16.7 91.2C33.3 88.3 66.7 82.7 100 79.8C133.3 77 166.7 77 200 76.8C233.3 76.7 266.7 76.3 300 81.2C333.3 86 366.7 96 400 101.8C433.3 107.7 466.7 109.3 500 105C533.3 100.7 566.7 90.3 600 89.5C633.3 88.7 666.7 97.3 700 99.5C733.3 101.7 766.7 97.3 800 95C833.3 92.7 866.7 92.3 900 94.8C933.3 97.3 966.7 102.7 983.3 105.3L1000 108L1000 151L983.3 151C966.7 151 933.3 151 900 151C866.7 151 833.3 151 800 151C766.7 151 733.3 151 700 151C666.7 151 633.3 151 600 151C566.7 151 533.3 151 500 151C466.7 151 433.3 151 400 151C366.7 151 333.3 151 300 151C266.7 151 233.3 151 200 151C166.7 151 133.3 151 100 151C66.7 151 33.3 151 16.7 151L0 151Z" fill="#6143aa"></path><path d="M0 118L16.7 118.7C33.3 119.3 66.7 120.7 100 119.8C133.3 119 166.7 116 200 112.2C233.3 108.3 266.7 103.7 300 103.3C333.3 103 366.7 107 400 108.5C433.3 110 466.7 109 500 109C533.3 109 566.7 110 600 113.3C633.3 116.7 666.7 122.3 700 124.7C733.3 127 766.7 126 800 120.2C833.3 114.3 866.7 103.7 900 100C933.3 96.3 966.7 99.7 983.3 101.3L1000 103L1000 151L983.3 151C966.7 151 933.3 151 900 151C866.7 151 833.3 151 800 151C766.7 151 733.3 151 700 151C666.7 151 633.3 151 600 151C566.7 151 533.3 151 500 151C466.7 151 433.3 151 400 151C366.7 151 333.3 151 300 151C266.7 151 233.3 151 200 151C166.7 151 133.3 151 100 151C66.7 151 33.3 151 16.7 151L0 151Z" fill="#5b409a"></path><path d="M0 124L16.7 126C33.3 128 66.7 132 100 133.7C133.3 135.3 166.7 134.7 200 135.5C233.3 136.3 266.7 138.7 300 139C333.3 139.3 366.7 137.7 400 134.3C433.3 131 466.7 126 500 126.5C533.3 127 566.7 133 600 133.8C633.3 134.7 666.7 130.3 700 127.5C733.3 124.7 766.7 123.3 800 126.8C833.3 130.3 866.7 138.7 900 140.7C933.3 142.7 966.7 138.3 983.3 136.2L1000 134L1000 151L983.3 151C966.7 151 933.3 151 900 151C866.7 151 833.3 151 800 151C766.7 151 733.3 151 700 151C666.7 151 633.3 151 600 151C566.7 151 533.3 151 500 151C466.7 151 433.3 151 400 151C366.7 151 333.3 151 300 151C266.7 151 233.3 151 200 151C166.7 151 133.3 151 100 151C66.7 151 33.3 151 16.7 151L0 151Z" fill="#553c8b"></path></svg>