<svg id="visual" viewBox="0 0 1000 150" width="1000" height="150" xmlns="http://www.w3.org/2000/svg" xmlns:xlink="http://www.w3.org/1999/xlink" version="1.1"><rect x="0" y="0" width="1000" height="150" fill="#001220"></rect><path d="M0 33L11.2 39.7C22.3 46.3 44.7 59.7 66.8 60.5C89 61.3 111 49.7 133.2 47.8C155.3 46 177.7 54 200 55.2C222.3 56.3 244.7 50.7 266.8 44.3C289 38 311 31 333.2 32.8C355.3 34.7 377.7 45.3 400 45.2C422.3 45 444.7 34 466.8 29.5C489 25 511 27 533.2 34.3C555.3 41.7 577.7 54.3 600 53.8C622.3 53.3 644.7 39.7 666.8 37.5C689 35.3 711 44.7 733.2 45C755.3 45.3 777.7 36.7 800 41C822.3 45.3 844.7 62.7 866.8 65.2C889 67.7 911 55.3 933.2 49.7C955.3 44 977.7 45 988.8 45.5L1000 46L1000 151L988.8 151C977.7 151 955.3 151 933.2 151C911 151 889 151 866.8 151C844.7 151 822.3 151 800 151C777.7 151 755.3 151 733.2 151C711 151 689 151 666.8 151C644.7 151 622.3 151 600 151C577.7 151 555.3 151 533.2 151C511 151 489 151 466.8 151C444.7 151 422.3 151 400 151C377.7 151 355.3 151 333.2 151C311 151 289 151 266.8 151C244.7 151 222.3 151 200 151C177.7 151 155.3 151 133.2 151C111 151 89 151 66.8 151C44.7 151 22.3 151 11.2 151L0 151Z" fill="#b7fbff"></path><path d="M0 50L11.2 54.5C22.3 59 44.7 68 66.8 66.7C89 65.3 111 53.7 133.2 56.2C155.3 58.7 177.7 75.3 200 81.2C222.3 87 244.7 82 266.8 73.8C289 65.7 311 54.3 333.2 49.2C355.3 44 377.7 45 400 48.8C422.3 52.7 444.7 59.3 466.8 66.2C489 73 511 80 533.2 79.7C555.3 79.3 577.7 71.7 600 64.2C622.3 56.7 644.7 49.3 666.8 51.7C689 54 711 66 733.2 72.7C755.3 79.3 777.7 80.7 800 76.2C822.3 71.7 844.7 61.3 866.8 60.5C889 59.7 911 68.3 933.2 71C955.3 73.7 977.7 70.3 988.8 68.7L1000 67L1000 151L988.8 151C977.7 151 955.3 151 933.2 151C911 151 889 151 866.8 151C844.7 151 822.3 151 800 151C777.7 151 755.3 151 733.2 151C711 151 689 151 666.8 151C644.7 151 622.3 151 600 151C577.7 151 555.3 151 533.2 151C511 151 489 151 466.8 151C444.7 151 422.3 151 400 151C377.7 151 355.3 151 333.2 151C311 151 289 151 266.8 151C244.7 151 222.3 151 200 151C177.7 151 155.3 151 133.2 151C111 151 89 151 66.8 151C44.7 151 22.3 151 11.2 151L0 151Z" fill="#84d8ef"></path><path d="M0 93L11.2 90.3C22.3 87.7 44.7 82.3 66.8 76.7C89 71 111 65 133.2 65.2C155.3 65.3 177.7 71.7 200 74.7C222.3 77.7 244.7 77.3 266.8 74.7C289 72 311 67 333.2 65.3C355.3 63.7 377.7 65.3 400 67.7C422.3 70 444.7 73 466.8 74.2C489 75.3 511 74.7 533.2 77.8C555.3 81 577.7 88 600 93C622.3 98 644.7 101 666.8 100.7C689 100.3 711 96.7 733.2 89.7C755.3 82.7 777.7 72.3 800 68.2C822.3 64 844.7 66 866.8 72.3C889 78.7 911 89.3 933.2 88.7C955.3 88 977.7 76 988.8 70L1000 64L1000 151L988.8 151C977.7 151 955.3 151 933.2 151C911 151 889 151 866.8 151C844.7 151 822.3 151 800 151C777.7 151 755.3 151 733.2 151C711 151 689 151 666.8 151C644.7 151 622.3 151 600 151C577.7 151 555.3 151 533.2 151C511 151 489 151 466.8 151C444.7 151 422.3 151 400 151C377.7 151 355.3 151 333.2 151C311 151 289 151 266.8 151C244.7 151 222.3 151 200 151C177.7 151 155.3 151 133.2 151C111 151 89 151 66.8 151C44.7 151 22.3 151 11.2 151L0 151Z" fill="#59b4df"></path><path d="M0 84L11.2 83.2C22.3 82.3 44.7 80.7 66.8 83.5C89 86.3 111 93.7 133.2 97.2C155.3 100.7 177.7 100.3 200 101.3C222.3 102.3 244.7 104.7 266.8 102C289 99.3 311 91.7 333.2 87.5C355.3 83.3 377.7 82.7 400 84.5C422.3 86.3 444.7 90.7 466.8 92.3C489 94 511 93 533.2 93C555.3 93 577.7 94 600 95.5C622.3 97 644.7 99 666.8 96C689 93 711 85 733.2 86C755.3 87 777.7 97 800 101C822.3 105 844.7 103 866.8 99.7C889 96.3 911 91.7 933.2 89.5C955.3 87.3 977.7 87.7 988.8 87.8L1000 88L1000 151L988.8 151C977.7 151 955.3 151 933.2 151C911 151 889 151 866.8 151C844.7 151 822.3 151 800 151C777.7 151 755.3 151 733.2 151C711 151 689 151 666.8 151C644.7 151 622.3 151 600 151C577.7 151 555.3 151 533.2 151C511 151 489 151 466.8 151C444.7 151 422.3 151 400 151C377.7 151 355.3 151 333.2 151C311 151 289 151 266.8 151C244.7 151 222.3 151 200 151C177.7 151 155.3 151 133.2 151C111 151 89 151 66.8 151C44.7 151 22.3 151 11.2 151L0 151Z" fill="#448ecc"></path><path d="M0 112L11.2 109.8C22.3 107.7 44.7 103.3 66.8 106.2C89 109 111 119 133.2 124C155.3 129 177.7 129 200 124C222.3 119 244.7 109 266.8 106C289 103 311 107 333.2 110.7C355.3 114.3 377.7 117.7 400 120.7C422.3 123.7 444.7 126.3 466.8 126.7C489 127 511 125 533.2 121.8C555.3 118.7 577.7 114.3 600 112.3C622.3 110.3 644.7 110.7 666.8 109.2C689 107.7 711 104.3 733.2 103.3C755.3 102.3 777.7 103.7 800 106C822.3 108.3 844.7 111.7 866.8 110.3C889 109 911 103 933.2 102.7C955.3 102.3 977.7 107.7 988.8 110.3L1000 113L1000 151L988.8 151C977.7 151 955.3 151 933.2 151C911 151 889 151 866.8 151C844.7 151 822.3 151 800 151C777.7 151 755.3 151 733.2 151C711 151 689 151 666.8 151C644.7 151 622.3 151 600 151C577.7 151 555.3 151 533.2 151C511 151 489 151 466.8 151C444.7 151 422.3 151 400 151C377.7 151 355.3 151 333.2 151C311 151 289 151 266.8 151C244.7 151 222.3 151 200 151C177.7 151 155.3 151 133.2 151C111 151 89 151 66.8 151C44.7 151 22.3 151 11.2 151L0 151Z" fill="#4866b0"></path><path d="M0 115L11.2 118.5C22.3 122 44.7 129 66.8 133.2C89 137.3 111 138.7 133.2 138.7C155.3 138.7 177.7 137.3 200 137C222.3 136.7 244.7 137.3 266.8 136.5C289 135.7 311 133.3 333.2 130.5C355.3 127.7 377.7 124.3 400 124C422.3 123.7 444.7 126.3 466.8 128.2C489 130 511 131 533.2 131.2C555.3 131.3 577.7 130.7 600 129.7C622.3 128.7 644.7 127.3 666.8 127.8C689 128.3 711 130.7 733.2 129.5C755.3 128.3 777.7 123.7 800 121C822.3 118.3 844.7 117.7 866.8 117.2C889 116.7 911 116.3 933.2 117.8C955.3 119.3 977.7 122.7 988.8 124.3L1000 126L1000 151L988.8 151C977.7 151 955.3 151 933.2 151C911 151 889 151 866.8 151C844.7 151 822.3 151 800 151C777.7 151 755.3 151 733.2 151C711 151 689 151 666.8 151C644.7 151 622.3 151 600 151C577.7 151 555.3 151 533.2 151C511 151 489 151 466.8 151C444.7 151 422.3 151 400 151C377.7 151 355.3 151 333.2 151C311 151 289 151 266.8 151C244.7 151 222.3 151 200 151C177.7 151 155.3 151 133.2 151C111 151 89 151 66.8 151C44.7 151 22.3 151 11.2 151L0 151Z" fill="#553c8b"></path></svg>